# xmcd CD database file
#
# Track frame offsets:
#	150
#	464
#	13996
#	26037
#	38610
#	55924
#	74108
#	95106
#	115027
#	133526
#	148163
#	159993
#	171755
#	175532
#	189969
#	205343
#	221583
#
# Disc length: 3123 seconds
#
# Revision: 0
# Processed by: cddbd v1.4PL0 Copyright (c) Steve Scherf et al.
# Submitted via: CDex 1.50
#
DISCID=ed0c3111
DTITLE=Travis Linville - 15 Songs March 2000
DYEAR=2000
DGENRE=Country
TTITLE0=bits
TTITLE1=Freedoms Just a Word
TTITLE2=Tulsa
TTITLE3=Between the Bottle and Her
TTITLE4=Few More Miles to Mexico
TTITLE5=Go Easy on Me
TTITLE6=Untended Garden
TTITLE7=Low Down Livin
TTITLE8=By My Side
TTITLE9=Up in Smoke
TTITLE10=Without a Trace
TTITLE11=Sad Country Somg
TTITLE12=and pieces
TTITLE13=2009
TTITLE14=Soft Place to Fall
TTITLE15=Ridin' the Road
TTITLE16=Uncertain Texas
EXTD=YEAR: 2000
EXTT0=
EXTT1=
EXTT2=
EXTT3=
EXTT4=
EXTT5=
EXTT6=
EXTT7=
EXTT8=
EXTT9=
EXTT10=
EXTT11=
EXTT12=
EXTT13=
EXTT14=
EXTT15=
EXTT16=
PLAYORDER=
